<?xml version="1.0" encoding="UTF-8"?>
<svg version="1.1" xmlns="http://www.w3.org/2000/svg" width="28" height="28">
<path d="M0 0 C9.24 0 18.48 0 28 0 C28 9.24 28 18.48 28 28 C18.76 28 9.52 28 0 28 C0 18.76 0 9.52 0 0 Z " fill="#F11C81" transform="translate(0,0)"/>
<path d="M0 0 C4.3003125 0.0309375 4.3003125 0.0309375 8.6875 0.0625 C8.6875 9.3025 8.6875 18.5425 8.6875 28.0625 C6.3775 28.0625 4.0675 28.0625 1.6875 28.0625 C1.501875 27.134375 1.501875 27.134375 1.3125 26.1875 C0.81552644 23.87129168 0.81552644 23.87129168 -1.3125 22.0625 C-1.3125 21.4025 -1.3125 20.7425 -1.3125 20.0625 C-2.77083358 18.43735532 -2.77083358 18.43735532 -4.3125 17.0625 C-3.9825 16.4025 -3.6525 15.7425 -3.3125 15.0625 C-3.59491883 12.7224583 -3.92500787 10.38745277 -4.3125 8.0625 C-3.3225 7.7325 -2.3325 7.4025 -1.3125 7.0625 C0.3375 10.3625 1.9875 13.6625 3.6875 17.0625 C3.6875 13.7625 3.6875 10.4625 3.6875 7.0625 C-1.25999352 5.11218392 -1.25999352 5.11218392 -6.3125 6.0625 C-5.6525 5.0725 -4.9925 4.0825 -4.3125 3.0625 C-7.72349168 3.0625 -10.94338314 3.55395406 -14.3125 4.0625 C-14.3125 3.0725 -14.3125 2.0825 -14.3125 1.0625 C-9.54175383 -0.17148119 -4.8865582 -0.04975053 0 0 Z " fill="#8007EF" transform="translate(19.3125,-0.0625)"/>
<path d="M0 0 C1.98 0 3.96 0 6 0 C5.01 0.66 4.02 1.32 3 2 C2.34 1.67 1.68 1.34 1 1 C1 1.99 1 2.98 1 4 C3.3431213 3.74438677 5.67843403 3.40729228 8 3 C8.33 2.34 8.66 1.68 9 1 C9.433125 1.495 9.86625 1.99 10.3125 2.5 C11.99740483 4.33218192 11.99740483 4.33218192 15 4 C17.6875 4.8125 17.6875 4.8125 20 7 C20.44731303 10.69851501 20.28329101 14.29203542 20 18 C16.7156107 15.01000974 15.61916695 12.08646897 14 8 C13.01 8 12.02 8 11 8 C11.66 10.64 12.32 13.28 13 16 C11.02 16 9.04 16 7 16 C7.66 13.69 8.32 11.38 9 9 C8.34 8.34 7.68 7.68 7 7 C6.35165346 8.269553 5.70642185 9.54069706 5.0625 10.8125 C4.70285156 11.52019531 4.34320312 12.22789063 3.97265625 12.95703125 C2.89269484 15.11810285 2.89269484 15.11810285 2 18 C1.34 18 0.68 18 0 18 C0 14.37 0 10.74 0 7 C0.66 6.67 1.32 6.34 2 6 C1.34 5.67 0.68 5.34 0 5 C0 3.35 0 1.7 0 0 Z " fill="#E92ECE" transform="translate(4,0)"/>
<path d="M0 0 C2 3 2 3 2 5 C2.56203125 4.83628906 3.1240625 4.67257813 3.703125 4.50390625 C6.13059056 3.97135003 8.26889681 3.90101319 10.75 3.9375 C11.54921875 3.94652344 12.3484375 3.95554687 13.171875 3.96484375 C13.77515625 3.97644531 14.3784375 3.98804688 15 4 C15.33 5.65 15.66 7.3 16 9 C9.07 9 2.14 9 -5 9 C-5 8.34 -5 7.68 -5 7 C-3.35 6.34 -1.7 5.68 0 5 C0 3.35 0 1.7 0 0 Z " fill="#E91059" transform="translate(5,19)"/>
<path d="M0 0 C2.2477975 2.05233685 3.0022242 3.00667261 4 6 C3.95875 7.134375 3.9175 8.26875 3.875 9.4375 C4.01186904 13.33826754 4.61728015 14.12088018 7 17 C7 18.32 7 19.64 7 21 C6.01 21 5.02 21 4 21 C3.87625 20.38125 3.7525 19.7625 3.625 19.125 C3.12802644 16.80879168 3.12802644 16.80879168 1 15 C1 14.34 1 13.68 1 13 C-0.45833358 11.37485532 -0.45833358 11.37485532 -2 10 C-1.67 9.34 -1.34 8.68 -1 8 C-1.28241883 5.6599583 -1.61250787 3.32495277 -2 1 C-1.34 0.67 -0.68 0.34 0 0 Z " fill="#C32CD9" transform="translate(17,7)"/>
<path d="M0 0 C1.32 0 2.64 0 4 0 C4 1.65 4 3.3 4 5 C4.99 5.33 5.98 5.66 7 6 C6.01 6.33 5.02 6.66 4 7 C3.67 9.97 3.34 12.94 3 16 C2.34 16 1.68 16 1 16 C0.67 16.66 0.34 17.32 0 18 C0 12.06 0 6.12 0 0 Z " fill="#FA35D4" transform="translate(0,0)"/>
<path d="M0 0 C0.4125 0.639375 0.825 1.27875 1.25 1.9375 C3.00723864 4.41464576 3.00723864 4.41464576 7 5 C7.33 8.3 7.66 11.6 8 15 C6.68 15 5.36 15 4 15 C3.71125 14.236875 3.4225 13.47375 3.125 12.6875 C2.03730987 9.84970692 2.03730987 9.84970692 0 7 C-0.07905064 4.66800612 -0.08798769 2.33167378 0 0 Z " fill="#9713E1" transform="translate(20,13)"/>
<path d="M0 0 C0.97582031 0.00902344 1.95164062 0.01804688 2.95703125 0.02734375 C3.69308594 0.03894531 4.42914063 0.05054688 5.1875 0.0625 C5.5175 1.3825 5.8475 2.7025 6.1875 4.0625 C3.2175 4.7225 0.2475 5.3825 -2.8125 6.0625 C-2.1525 5.0725 -1.4925 4.0825 -0.8125 3.0625 C-4.22349168 3.0625 -7.44338314 3.55395406 -10.8125 4.0625 C-10.8125 3.0725 -10.8125 2.0825 -10.8125 1.0625 C-7.13862505 0.20951624 -3.7677607 -0.04539471 0 0 Z " fill="#F530DE" transform="translate(15.8125,-0.0625)"/>
<path d="M0 0 C-1.54269924 4.72065967 -3.07794619 9.41664092 -5 14 C-5.66 14 -6.32 14 -7 14 C-7.28328822 10.29207191 -7.45269973 6.69795687 -7 3 C-4.54305747 0.73702662 -3.3203746 0 0 0 Z " fill="#F9DCF2" transform="translate(11,4)"/>
<path d="M0 0 C5.875 1.875 5.875 1.875 7 3 C7.07226502 4.85287502 7.0838122 6.70833878 7.0625 8.5625 C7.05347656 9.57441406 7.04445313 10.58632812 7.03515625 11.62890625 C7.02355469 12.41136719 7.01195312 13.19382812 7 14 C4.66714622 11.86099367 3.2131241 9.83344647 1.8125 7 C1.46832031 6.319375 1.12414062 5.63875 0.76953125 4.9375 C0 3 0 3 0 0 Z " fill="#F1DFF7" transform="translate(17,4)"/>
<path d="M0 0 C2.31 0 4.62 0 7 0 C7 1.98 7 3.96 7 6 C4.75 6.6875 4.75 6.6875 2 7 C-0.3125 5.5625 -0.3125 5.5625 -2 4 C-1.34 2.68 -0.68 1.36 0 0 Z " fill="#AC20E7" transform="translate(21,0)"/>
<path d="M0 0 C2.97 0 5.94 0 9 0 C9 1.32 9 2.64 9 4 C5.625 4.625 5.625 4.625 2 5 C1.34 4.34 0.68 3.68 0 3 C0 2.01 0 1.02 0 0 Z " fill="#F7F1F9" transform="translate(9,19)"/>
<path d="M0 0 C0 1.32 0 2.64 0 4 C-2.97 4 -5.94 4 -9 4 C-8.67 2.68 -8.34 1.36 -8 0 C-4.71023192 -1.09658936 -3.28696233 -0.79953138 0 0 Z " fill="#E7136C" transform="translate(21,24)"/>
<path d="M0 0 C3.59199301 0.99777583 4.93391293 1.91783769 7.3125 4.875 C9 8 9 8 9 12 C8.01 12 7.02 12 6 12 C5.87625 11.38125 5.7525 10.7625 5.625 10.125 C5.12802644 7.80879168 5.12802644 7.80879168 3 6 C3 5.34 3 4.68 3 4 C2.0206121 2.97980427 1.02104551 1.97850195 0 1 C0 0.67 0 0.34 0 0 Z " fill="#C3109D" transform="translate(15,16)"/>
<path d="M0 0 C3 3.625 3 3.625 3 7 C3.66 7 4.32 7 5 7 C4.67 8.32 4.34 9.64 4 11 C2 9.4375 2 9.4375 0 7 C-0.25 3.25 -0.25 3.25 0 0 Z " fill="#A815D4" transform="translate(20,13)"/>
<path d="M0 0 C1.5625 1.75 1.5625 1.75 3 4 C2.6875 6.25 2.6875 6.25 2 8 C0.68 8.33 -0.64 8.66 -2 9 C-2.6875 7.3125 -2.6875 7.3125 -3 5 C-1.5625 2.25 -1.5625 2.25 0 0 Z " fill="#EB32AF" transform="translate(11,5)"/>
<path d="M0 0 C1.65 0 3.3 0 5 0 C5.33 1.32 5.66 2.64 6 4 C3.03 4.66 0.06 5.32 -3 6 C-2.01 5.01 -1.02 4.02 0 3 C0 2.01 0 1.02 0 0 Z " fill="#D335E2" transform="translate(16,0)"/>
<path d="M0 0 C0.66 0 1.32 0 2 0 C2.66 1.98 3.32 3.96 4 6 C2.02 6 0.04 6 -2 6 C-1.34 4.02 -0.68 2.04 0 0 Z " fill="#FAE4F4" transform="translate(13,10)"/>
<path d="M0 0 C0.99 0.495 0.99 0.495 2 1 C2.625 4.0625 2.625 4.0625 3 7 C3.66 7 4.32 7 5 7 C5 7.99 5 8.98 5 10 C2 9 2 9 0.8125 7.25 C-0.10819096 4.70039426 -0.14948718 2.69076919 0 0 Z " fill="#C524BB" transform="translate(15,8)"/>
<path d="M0 0 C1.9375 0.3125 1.9375 0.3125 4 1 C4.33 1.99 4.66 2.98 5 4 C3.35 4.33 1.7 4.66 0 5 C0 3.35 0 1.7 0 0 Z " fill="#F00545" transform="translate(9,23)"/>
<path d="M0 0 C1.98 0 3.96 0 6 0 C5.01 0.495 5.01 0.495 4 1 C4 2.32 4 3.64 4 5 C2.68 4.34 1.36 3.68 0 3 C0 2.01 0 1.02 0 0 Z " fill="#F5DBE7" transform="translate(9,19)"/>
<path d="M0 0 C3 3.625 3 3.625 3 7 C2.34 7 1.68 7 1 7 C0.67 7.66 0.34 8.32 0 9 C0 6.03 0 3.06 0 0 Z " fill="#F72BB1" transform="translate(0,9)"/>
</svg>
